<svg width="32" height="29" viewBox="0 0 32 29" fill="none" xmlns="http://www.w3.org/2000/svg">
<path fill-rule="evenodd" clip-rule="evenodd" d="M22.0775 0.85932C22.4029 0.574563 22.9306 0.574563 23.256 0.85932L31.5893 8.15099C31.9148 8.43574 31.9148 8.89743 31.5893 9.18218L9.92267 28.1405C9.76639 28.2773 9.55443 28.3541 9.33341 28.3541H1.00008C0.539844 28.3541 0.166748 28.0276 0.166748 27.6249V20.3333C0.166748 20.1399 0.254545 19.9544 0.410826 19.8177L22.0775 0.85932ZM18.8453 5.74992L26.0001 12.0104L29.8216 8.66659L22.6667 2.40612L18.8453 5.74992ZM24.8216 13.0416L17.6667 6.78112L3.01193 19.6041L10.1667 25.8646L24.8216 13.0416ZM8.98824 26.8958L1.83341 20.6353V26.8958H8.98824Z" fill="#1B581D"/>
</svg>
